<svg width="110" height="110"><path d="M 0 0 H 50 m 10 0 H 100" stroke="#000000" /><path d="M 0 10 H 100" stroke="#000000" /><path d="M 0 0 V 100" stroke="#000000" /><path d="M 10 0 V 100" stroke="#000000" /><path d="M 0 10 L 10 10 Z" stroke="#000000" /><path d="M 10 0 L 10 10 Z" stroke="#000000" /><path d="M 10 10 L 20 10 Z" stroke="#000000" /><path d="M 20 0 L 20 10 Z" stroke="#000000" /><path d="M 30 0 L 30 10 Z" stroke="#000000" /><path d="M 40 0 L 40 10 Z" stroke="#000000" /><path d="M 30 10 L 40 10 Z" stroke="#000000" /><path d="M 40 0 L 40 10 Z" stroke="#000000" /><path d="M 40 10 L 50 10 Z" stroke="#000000" /><path d="M 50 0 L 50 10 Z" stroke="#000000" /><path d="M 60 0 L 60 10 Z" stroke="#000000" /><path d="M 50 10 L 60 10 Z" stroke="#000000" /><path d="M 60 0 L 60 10 Z" stroke="#000000" /><path d="M 70 0 L 70 10 Z" stroke="#000000" /><path d="M 80 0 L 80 10 Z" stroke="#000000" /><path d="M 70 10 L 80 10 Z" stroke="#000000" /><path d="M 90 0 L 90 10 Z" stroke="#000000" /><path d="M 80 10 L 90 10 Z" stroke="#000000" /><path d="M 100 0 L 100 10 Z" stroke="#000000" /><path d="M 90 10 L 100 10 Z" stroke="#000000" /><path d="M 100 10 L 110 10 Z" stroke="#000000" /><path d="M 0 10 L 10 10 Z" stroke="#000000" /><path d="M 10 10 L 10 20 Z" stroke="#000000" /><path d="M 10 10 L 20 10 Z" stroke="#000000" /><path d="M 20 10 L 20 20 Z" stroke="#000000" /><path d="M 10 20 L 20 20 Z" stroke="#000000" /><path d="M 20 10 L 30 10 Z" stroke="#000000" /><path d="M 30 10 L 30 20 Z" stroke="#000000" /><path d="M 20 20 L 30 20 Z" stroke="#000000" /><path d="M 30 10 L 30 20 Z" stroke="#000000" /><path d="M 40 10 L 40 20 Z" stroke="#000000" /><path d="M 30 20 L 40 20 Z" stroke="#000000" /><path d="M 40 10 L 40 20 Z" stroke="#000000" /><path d="M 50 10 L 50 20 Z" stroke="#000000" /><path d="M 40 20 L 50 20 Z" stroke="#000000" /><path d="M 50 10 L 50 20 Z" stroke="#000000" /><path d="M 50 10 L 60 10 Z" stroke="#000000" /><path d="M 50 20 L 60 20 Z" stroke="#000000" /><path d="M 60 10 L 60 20 Z" stroke="#000000" /><path d="M 60 10 L 70 10 Z" stroke="#000000" /><path d="M 60 20 L 70 20 Z" stroke="#000000" /><path d="M 70 10 L 70 20 Z" stroke="#000000" /><path d="M 70 10 L 80 10 Z" stroke="#000000" /><path d="M 70 20 L 80 20 Z" stroke="#000000" /><path d="M 80 10 L 80 20 Z" stroke="#000000" /><path d="M 80 10 L 90 10 Z" stroke="#000000" /><path d="M 90 10 L 90 20 Z" stroke="#000000" /><path d="M 90 10 L 90 20 Z" stroke="#000000" /><path d="M 90 10 L 100 10 Z" stroke="#000000" /><path d="M 90 20 L 100 20 Z" stroke="#000000" /><path d="M 100 10 L 100 20 Z" stroke="#000000" /><path d="M 100 20 L 110 20 Z" stroke="#000000" /><path d="M 0 20 L 10 20 Z" stroke="#000000" /><path d="M 0 30 L 10 30 Z" stroke="#000000" /><path d="M 10 20 L 10 30 Z" stroke="#000000" /><path d="M 10 20 L 20 20 Z" stroke="#000000" /><path d="M 20 20 L 20 30 Z" stroke="#000000" /><path d="M 20 20 L 20 30 Z" stroke="#000000" /><path d="M 20 20 L 30 20 Z" stroke="#000000" /><path d="M 20 30 L 30 30 Z" stroke="#000000" /><path d="M 30 20 L 30 30 Z" stroke="#000000" /><path d="M 30 20 L 40 20 Z" stroke="#000000" /><path d="M 30 30 L 40 30 Z" stroke="#000000" /><path d="M 40 20 L 40 30 Z" stroke="#000000" /><path d="M 50 20 L 50 30 Z" stroke="#000000" /><path d="M 40 30 L 50 30 Z" stroke="#000000" /><path d="M 50 20 L 50 30 Z" stroke="#000000" /><path d="M 60 20 L 60 30 Z" stroke="#000000" /><path d="M 50 30 L 60 30 Z" stroke="#000000" /><path d="M 60 20 L 70 20 Z" stroke="#000000" /><path d="M 70 20 L 70 30 Z" stroke="#000000" /><path d="M 60 30 L 70 30 Z" stroke="#000000" /><path d="M 70 20 L 70 30 Z" stroke="#000000" /><path d="M 70 20 L 80 20 Z" stroke="#000000" /><path d="M 80 20 L 80 30 Z" stroke="#000000" /><path d="M 80 20 L 90 20 Z" stroke="#000000" /><path d="M 90 20 L 90 30 Z" stroke="#000000" /><path d="M 80 30 L 90 30 Z" stroke="#000000" /><path d="M 90 20 L 90 30 Z" stroke="#000000" /><path d="M 90 20 L 100 20 Z" stroke="#000000" /><path d="M 90 30 L 100 30 Z" stroke="#000000" /><path d="M 100 20 L 100 30 Z" stroke="#000000" /><path d="M 100 20 L 110 20 Z" stroke="#000000" /><path d="M 10 30 L 10 40 Z" stroke="#000000" /><path d="M 0 40 L 10 40 Z" stroke="#000000" /><path d="M 10 30 L 10 40 Z" stroke="#000000" /><path d="M 10 30 L 20 30 Z" stroke="#000000" /><path d="M 20 30 L 20 40 Z" stroke="#000000" /><path d="M 20 30 L 20 40 Z" stroke="#000000" /><path d="M 30 30 L 30 40 Z" stroke="#000000" /><path d="M 20 40 L 30 40 Z" stroke="#000000" /><path d="M 30 30 L 40 30 Z" stroke="#000000" /><path d="M 40 30 L 40 40 Z" stroke="#000000" /><path d="M 30 40 L 40 40 Z" stroke="#000000" /><path d="M 40 30 L 50 30 Z" stroke="#000000" /><path d="M 50 30 L 50 40 Z" stroke="#000000" /><path d="M 40 40 L 50 40 Z" stroke="#000000" /><path d="M 50 30 L 50 40 Z" stroke="#000000" /><path d="M 50 30 L 60 30 Z" stroke="#000000" /><path d="M 60 30 L 60 40 Z" stroke="#000000" /><path d="M 60 30 L 70 30 Z" stroke="#000000" /><path d="M 70 30 L 70 40 Z" stroke="#000000" /><path d="M 60 40 L 70 40 Z" stroke="#000000" /><path d="M 70 30 L 80 30 Z" stroke="#000000" /><path d="M 80 30 L 80 40 Z" stroke="#000000" /><path d="M 70 40 L 80 40 Z" stroke="#000000" /><path d="M 80 30 L 80 40 Z" stroke="#000000" /><path d="M 80 30 L 90 30 Z" stroke="#000000" /><path d="M 80 40 L 90 40 Z" stroke="#000000" /><path d="M 90 30 L 90 40 Z" stroke="#000000" /><path d="M 100 30 L 100 40 Z" stroke="#000000" /><path d="M 90 40 L 100 40 Z" stroke="#000000" /><path d="M 100 30 L 100 40 Z" stroke="#000000" /><path d="M 100 30 L 110 30 Z" stroke="#000000" /><path d="M 10 40 L 10 50 Z" stroke="#000000" /><path d="M 0 50 L 10 50 Z" stroke="#000000" /><path d="M 10 40 L 10 50 Z" stroke="#000000" /><path d="M 10 40 L 20 40 Z" stroke="#000000" /><path d="M 10 50 L 20 50 Z" stroke="#000000" /><path d="M 20 40 L 20 50 Z" stroke="#000000" /><path d="M 20 40 L 30 40 Z" stroke="#000000" /><path d="M 30 40 L 30 50 Z" stroke="#000000" /><path d="M 30 40 L 40 40 Z" stroke="#000000" /><path d="M 40 40 L 40 50 Z" stroke="#000000" /><path d="M 30 50 L 40 50 Z" stroke="#000000" /><path d="M 40 40 L 40 50 Z" stroke="#000000" /><path d="M 50 40 L 50 50 Z" stroke="#000000" /><path d="M 40 50 L 50 50 Z" stroke="#000000" /><path d="M 50 40 L 50 50 Z" stroke="#000000" /><path d="M 50 40 L 60 40 Z" stroke="#000000" /><path d="M 50 50 L 60 50 Z" stroke="#000000" /><path d="M 60 40 L 60 50 Z" stroke="#000000" /><path d="M 60 40 L 70 40 Z" stroke="#000000" /><path d="M 60 50 L 70 50 Z" stroke="#000000" /><path d="M 70 40 L 70 50 Z" stroke="#000000" /><path d="M 70 40 L 80 40 Z" stroke="#000000" /><path d="M 70 50 L 80 50 Z" stroke="#000000" /><path d="M 80 40 L 80 50 Z" stroke="#000000" /><path d="M 90 40 L 90 50 Z" stroke="#000000" /><path d="M 80 50 L 90 50 Z" stroke="#000000" /><path d="M 90 40 L 90 50 Z" stroke="#000000" /><path d="M 90 40 L 100 40 Z" stroke="#000000" /><path d="M 100 40 L 100 50 Z" stroke="#000000" /><path d="M 100 40 L 110 40 Z" stroke="#000000" /><path d="M 100 50 L 110 50 Z" stroke="#000000" /><path d="M 10 50 L 10 60 Z" stroke="#000000" /><path d="M 0 60 L 10 60 Z" stroke="#000000" /><path d="M 10 50 L 20 50 Z" stroke="#000000" /><path d="M 20 50 L 20 60 Z" stroke="#000000" /><path d="M 10 60 L 20 60 Z" stroke="#000000" /><path d="M 20 50 L 20 60 Z" stroke="#000000" /><path d="M 20 50 L 30 50 Z" stroke="#000000" /><path d="M 30 50 L 30 60 Z" stroke="#000000" /><path d="M 30 50 L 30 60 Z" stroke="#000000" /><path d="M 40 50 L 40 60 Z" stroke="#000000" /><path d="M 30 60 L 40 60 Z" stroke="#000000" /><path d="M 40 50 L 40 60 Z" stroke="#000000" /><path d="M 50 50 L 50 60 Z" stroke="#000000" /><path d="M 40 60 L 50 60 Z" stroke="#000000" /><path d="M 50 50 L 60 50 Z" stroke="#000000" /><path d="M 60 50 L 60 60 Z" stroke="#000000" /><path d="M 50 60 L 60 60 Z" stroke="#000000" /><path d="M 60 50 L 60 60 Z" stroke="#000000" /><path d="M 70 50 L 70 60 Z" stroke="#000000" /><path d="M 60 60 L 70 60 Z" stroke="#000000" /><path d="M 70 50 L 80 50 Z" stroke="#000000" /><path d="M 80 50 L 80 60 Z" stroke="#000000" /><path d="M 70 60 L 80 60 Z" stroke="#000000" /><path d="M 80 50 L 90 50 Z" stroke="#000000" /><path d="M 90 50 L 90 60 Z" stroke="#000000" /><path d="M 80 60 L 90 60 Z" stroke="#000000" /><path d="M 90 50 L 90 60 Z" stroke="#000000" /><path d="M 90 50 L 100 50 Z" stroke="#000000" /><path d="M 90 60 L 100 60 Z" stroke="#000000" /><path d="M 100 50 L 100 60 Z" stroke="#000000" /><path d="M 100 50 L 110 50 Z" stroke="#000000" /><path d="M 10 60 L 10 70 Z" stroke="#000000" /><path d="M 0 70 L 10 70 Z" stroke="#000000" /><path d="M 10 60 L 10 70 Z" stroke="#000000" /><path d="M 10 60 L 20 60 Z" stroke="#000000" /><path d="M 20 60 L 20 70 Z" stroke="#000000" /><path d="M 20 60 L 30 60 Z" stroke="#000000" /><path d="M 30 60 L 30 70 Z" stroke="#000000" /><path d="M 20 70 L 30 70 Z" stroke="#000000" /><path d="M 30 60 L 30 70 Z" stroke="#000000" /><path d="M 40 60 L 40 70 Z" stroke="#000000" /><path d="M 30 70 L 40 70 Z" stroke="#000000" /><path d="M 40 60 L 50 60 Z" stroke="#000000" /><path d="M 50 60 L 50 70 Z" stroke="#000000" /><path d="M 40 70 L 50 70 Z" stroke="#000000" /><path d="M 50 60 L 50 70 Z" stroke="#000000" /><path d="M 60 60 L 60 70 Z" stroke="#000000" /><path d="M 50 70 L 60 70 Z" stroke="#000000" /><path d="M 60 60 L 70 60 Z" stroke="#000000" /><path d="M 70 60 L 70 70 Z" stroke="#000000" /><path d="M 60 70 L 70 70 Z" stroke="#000000" /><path d="M 70 60 L 70 70 Z" stroke="#000000" /><path d="M 70 60 L 80 60 Z" stroke="#000000" /><path d="M 80 60 L 80 70 Z" stroke="#000000" /><path d="M 80 60 L 90 60 Z" stroke="#000000" /><path d="M 90 60 L 90 70 Z" stroke="#000000" /><path d="M 80 70 L 90 70 Z" stroke="#000000" /><path d="M 90 60 L 100 60 Z" stroke="#000000" /><path d="M 100 60 L 100 70 Z" stroke="#000000" /><path d="M 90 70 L 100 70 Z" stroke="#000000" /><path d="M 100 60 L 110 60 Z" stroke="#000000" /><path d="M 100 70 L 110 70 Z" stroke="#000000" /><path d="M 10 70 L 10 80 Z" stroke="#000000" /><path d="M 0 80 L 10 80 Z" stroke="#000000" /><path d="M 10 70 L 10 80 Z" stroke="#000000" /><path d="M 10 70 L 20 70 Z" stroke="#000000" /><path d="M 20 70 L 20 80 Z" stroke="#000000" /><path d="M 20 70 L 20 80 Z" stroke="#000000" /><path d="M 20 70 L 30 70 Z" stroke="#000000" /><path d="M 20 80 L 30 80 Z" stroke="#000000" /><path d="M 30 70 L 30 80 Z" stroke="#000000" /><path d="M 30 70 L 40 70 Z" stroke="#000000" /><path d="M 30 80 L 40 80 Z" stroke="#000000" /><path d="M 40 70 L 40 80 Z" stroke="#000000" /><path d="M 40 70 L 50 70 Z" stroke="#000000" /><path d="M 50 70 L 50 80 Z" stroke="#000000" /><path d="M 50 70 L 60 70 Z" stroke="#000000" /><path d="M 60 70 L 60 80 Z" stroke="#000000" /><path d="M 50 80 L 60 80 Z" stroke="#000000" /><path d="M 60 70 L 60 80 Z" stroke="#000000" /><path d="M 70 70 L 70 80 Z" stroke="#000000" /><path d="M 60 80 L 70 80 Z" stroke="#000000" /><path d="M 70 70 L 70 80 Z" stroke="#000000" /><path d="M 70 70 L 80 70 Z" stroke="#000000" /><path d="M 80 70 L 80 80 Z" stroke="#000000" /><path d="M 80 70 L 80 80 Z" stroke="#000000" /><path d="M 80 70 L 90 70 Z" stroke="#000000" /><path d="M 90 70 L 90 80 Z" stroke="#000000" /><path d="M 90 70 L 100 70 Z" stroke="#000000" /><path d="M 100 70 L 100 80 Z" stroke="#000000" /><path d="M 90 80 L 100 80 Z" stroke="#000000" /><path d="M 100 70 L 100 80 Z" stroke="#000000" /><path d="M 100 80 L 110 80 Z" stroke="#000000" /><path d="M 0 80 L 10 80 Z" stroke="#000000" /><path d="M 10 80 L 10 90 Z" stroke="#000000" /><path d="M 10 80 L 20 80 Z" stroke="#000000" /><path d="M 20 80 L 20 90 Z" stroke="#000000" /><path d="M 10 90 L 20 90 Z" stroke="#000000" /><path d="M 20 80 L 20 90 Z" stroke="#000000" /><path d="M 30 80 L 30 90 Z" stroke="#000000" /><path d="M 20 90 L 30 90 Z" stroke="#000000" /><path d="M 30 80 L 30 90 Z" stroke="#000000" /><path d="M 30 80 L 40 80 Z" stroke="#000000" /><path d="M 40 80 L 40 90 Z" stroke="#000000" /><path d="M 40 80 L 50 80 Z" stroke="#000000" /><path d="M 50 80 L 50 90 Z" stroke="#000000" /><path d="M 40 90 L 50 90 Z" stroke="#000000" /><path d="M 50 80 L 50 90 Z" stroke="#000000" /><path d="M 50 80 L 60 80 Z" stroke="#000000" /><path d="M 50 90 L 60 90 Z" stroke="#000000" /><path d="M 60 80 L 60 90 Z" stroke="#000000" /><path d="M 70 80 L 70 90 Z" stroke="#000000" /><path d="M 60 90 L 70 90 Z" stroke="#000000" /><path d="M 70 80 L 70 90 Z" stroke="#000000" /><path d="M 70 80 L 80 80 Z" stroke="#000000" /><path d="M 80 80 L 80 90 Z" stroke="#000000" /><path d="M 80 80 L 80 90 Z" stroke="#000000" /><path d="M 80 80 L 90 80 Z" stroke="#000000" /><path d="M 80 90 L 90 90 Z" stroke="#000000" /><path d="M 90 80 L 90 90 Z" stroke="#000000" /><path d="M 90 80 L 100 80 Z" stroke="#000000" /><path d="M 90 90 L 100 90 Z" stroke="#000000" /><path d="M 100 80 L 100 90 Z" stroke="#000000" /><path d="M 100 90 L 110 90 Z" stroke="#000000" /><path d="M 0 90 L 10 90 Z" stroke="#000000" /><path d="M 0 100 L 10 100 Z" stroke="#000000" /><path d="M 10 90 L 10 100 Z" stroke="#000000" /><path d="M 10 90 L 20 90 Z" stroke="#000000" /><path d="M 20 90 L 20 100 Z" stroke="#000000" /><path d="M 20 90 L 20 100 Z" stroke="#000000" /><path d="M 30 90 L 30 100 Z" stroke="#000000" /><path d="M 20 100 L 30 100 Z" stroke="#000000" /><path d="M 30 90 L 30 100 Z" stroke="#000000" /><path d="M 30 90 L 40 90 Z" stroke="#000000" /><path d="M 30 100 L 40 100 Z" stroke="#000000" /><path d="M 40 90 L 40 100 Z" stroke="#000000" /><path d="M 40 90 L 50 90 Z" stroke="#000000" /><path d="M 40 100 L 50 100 Z" stroke="#000000" /><path d="M 50 90 L 50 100 Z" stroke="#000000" /><path d="M 60 90 L 60 100 Z" stroke="#000000" /><path d="M 50 100 L 60 100 Z" stroke="#000000" /><path d="M 60 90 L 60 100 Z" stroke="#000000" /><path d="M 60 90 L 70 90 Z" stroke="#000000" /><path d="M 70 90 L 70 100 Z" stroke="#000000" /><path d="M 70 90 L 80 90 Z" stroke="#000000" /><path d="M 80 90 L 80 100 Z" stroke="#000000" /><path d="M 70 100 L 80 100 Z" stroke="#000000" /><path d="M 80 90 L 80 100 Z" stroke="#000000" /><path d="M 90 90 L 90 100 Z" stroke="#000000" /><path d="M 80 100 L 90 100 Z" stroke="#000000" /><path d="M 90 90 L 90 100 Z" stroke="#000000" /><path d="M 90 90 L 100 90 Z" stroke="#000000" /><path d="M 90 100 L 100 100 Z" stroke="#000000" /><path d="M 100 90 L 100 100 Z" stroke="#000000" /><path d="M 100 90 L 110 90 Z" stroke="#000000" /><path d="M 10 100 L 10 110 Z" stroke="#000000" /><path d="M 10 100 L 10 110 Z" stroke="#000000" /><path d="M 10 100 L 20 100 Z" stroke="#000000" /><path d="M 20 100 L 20 110 Z" stroke="#000000" /><path d="M 30 100 L 30 110 Z" stroke="#000000" /><path d="M 30 100 L 40 100 Z" stroke="#000000" /><path d="M 40 100 L 40 110 Z" stroke="#000000" /><path d="M 40 100 L 50 100 Z" stroke="#000000" /><path d="M 50 100 L 50 110 Z" stroke="#000000" /><path d="M 50 100 L 60 100 Z" stroke="#000000" /><path d="M 60 100 L 60 110 Z" stroke="#000000" /><path d="M 60 100 L 70 100 Z" stroke="#000000" /><path d="M 70 100 L 70 110 Z" stroke="#000000" /><path d="M 70 100 L 70 110 Z" stroke="#000000" /><path d="M 70 100 L 80 100 Z" stroke="#000000" /><path d="M 80 100 L 80 110 Z" stroke="#000000" /><path d="M 90 100 L 90 110 Z" stroke="#000000" /><path d="M 90 100 L 100 100 Z" stroke="#000000" /><path d="M 100 100 L 100 110 Z" stroke="#000000" /><path d="M 100 100 L 110 100 Z" stroke="#000000" /></svg>